<svg width="50" height="50" viewBox="0 0 50 50" fill="none" xmlns="http://www.w3.org/2000/svg">
<path d="M46.3127 21.1647H44.717V19.1004C44.717 15.769 41.7509 13.0817 38.1331 13.0817H27.3815V8.13043C28.7951 7.37727 29.7451 5.97018 29.7451 4.35578C29.7451 1.94963 27.6235 0 25.012 0C22.3969 0 20.2645 1.95073 20.2645 4.35578C20.2645 5.97018 21.2049 7.37727 22.6185 8.13043V13.0817H11.8837C8.26465 13.0817 5.35723 15.769 5.35723 19.1004V21.1647H3.70286C1.66515 21.1647 0 22.7162 0 24.592V31.9285C0 33.8031 1.66515 35.3414 3.70286 35.3414H5.35723V37.4223C5.35723 40.7536 8.26465 43.4233 11.8837 43.4233H14.9552V46.6036C14.9552 48.4793 16.6239 50 18.6617 50H31.3551C33.3928 50 35.0448 48.4793 35.0448 46.6036V43.4244H38.1331C41.7521 43.4244 44.717 40.7536 44.717 37.4223V35.3425H46.3127C48.3504 35.3425 50 33.8053 50 31.9296V24.5931C50 22.7173 48.3528 21.1647 46.3127 21.1647ZM10.6366 23.4562C10.6366 21.2518 12.5785 19.4665 14.972 19.4665C17.3655 19.4665 19.305 21.2518 19.305 23.4562C19.305 25.6605 17.3655 27.4459 14.972 27.4459C12.5785 27.4459 10.6366 25.6605 10.6366 23.4562ZM30.9119 38.0144H19.1049C17.1486 38.0144 15.5626 36.5632 15.5626 34.7603C15.5626 32.9595 17.1486 31.5083 19.1049 31.5083H30.9131C32.8693 31.5083 34.4554 32.9595 34.4554 34.7603C34.4554 36.561 32.8681 38.0144 30.9119 38.0144ZM35.0448 27.4459C32.6513 27.4459 30.7106 25.6605 30.7106 23.4562C30.7106 21.2518 32.6513 19.4665 35.0448 19.4665C37.4395 19.4665 39.3802 21.2518 39.3802 23.4562C39.3802 25.6605 37.4395 27.4459 35.0448 27.4459Z" fill="#427EF3"/>
</svg>
