<svg width="40" height="40" viewBox="0 0 40 40" fill="none" xmlns="http://www.w3.org/2000/svg">
<path d="M37.0502 16.9318H35.7736V15.2803C35.7736 12.6152 33.4007 10.4654 30.5065 10.4654H21.9052V6.50435C23.0361 5.90181 23.7961 4.77615 23.7961 3.48463C23.7961 1.5597 22.0988 0 20.0096 0C17.9175 0 16.2116 1.56058 16.2116 3.48463C16.2116 4.77615 16.9639 5.90181 18.0948 6.50435V10.4654H9.50692C6.61172 10.4654 4.28578 12.6152 4.28578 15.2803V16.9318H2.96229C1.33212 16.9318 0 18.173 0 19.6736V25.5428C0 27.0425 1.33212 28.2731 2.96229 28.2731H4.28578V29.9378C4.28578 32.6029 6.61172 34.7387 9.50692 34.7387H11.9642V37.2829C11.9642 38.7835 13.2992 40 14.9293 40H25.0841C26.7143 40 28.0358 38.7835 28.0358 37.2829V34.7395H30.5065C33.4017 34.7395 35.7736 32.6029 35.7736 29.9378V28.274H37.0502C38.6803 28.274 40 27.0442 40 25.5436V19.6745C40 18.1739 38.6823 16.9318 37.0502 16.9318ZM8.50927 18.7649C8.50927 17.0015 10.0628 15.5732 11.9776 15.5732C13.8924 15.5732 15.444 17.0015 15.444 18.7649C15.444 20.5284 13.8924 21.9567 11.9776 21.9567C10.0628 21.9567 8.50927 20.5284 8.50927 18.7649ZM24.7295 30.4115H15.2839C13.7189 30.4115 12.45 29.2506 12.45 27.8082C12.45 26.3676 13.7189 25.2067 15.2839 25.2067H24.7305C26.2955 25.2067 27.5643 26.3676 27.5643 27.8082C27.5643 29.2488 26.2945 30.4115 24.7295 30.4115ZM28.0358 21.9567C26.121 21.9567 24.5685 20.5284 24.5685 18.7649C24.5685 17.0015 26.121 15.5732 28.0358 15.5732C29.9516 15.5732 31.5041 17.0015 31.5041 18.7649C31.5041 20.5284 29.9516 21.9567 28.0358 21.9567Z" fill="#2B50AA"/>
</svg>
